<svg width="48" height="48" viewBox="0 0 48 48" fill="none" xmlns="http://www.w3.org/2000/svg">
<rect width="48" height="48" rx="14" fill="url(#paint0_linear_5_24)"/>
<path fill-rule="evenodd" clip-rule="evenodd" d="M36 24C36 30.6274 30.6274 36 24 36C17.3726 36 12 30.6274 12 24C12 17.3726 17.3726 12 24 12C30.6274 12 36 17.3726 36 24ZM28 18C28 20.2091 26.2091 22 24 22C21.7909 22 20 20.2091 20 18C20 15.7909 21.7909 14 24 14C26.2091 14 28 15.7909 28 18ZM24 34C26.2091 34 28 32.2091 28 30C28 27.7909 26.2091 26 24 26C21.7909 26 20 27.7909 20 30C20 32.2091 21.7909 34 24 34ZM22 24C22 26.2091 20.2091 28 18 28C15.7909 28 14 26.2091 14 24C14 21.7909 15.7909 20 18 20C20.2091 20 22 21.7909 22 24ZM30 28C32.2091 28 34 26.2091 34 24C34 21.7909 32.2091 20 30 20C27.7909 20 26 21.7909 26 24C26 26.2091 27.7909 28 30 28Z" fill="white"/>
<path d="M24 37C31.1797 37 37 31.1797 37 24H35C35 30.0751 30.0751 35 24 35V37ZM11 24C11 31.1797 16.8203 37 24 37V35C17.9249 35 13 30.0751 13 24H11ZM24 11C16.8203 11 11 16.8203 11 24H13C13 17.9249 17.9249 13 24 13V11ZM37 24C37 16.8203 31.1797 11 24 11V13C30.0751 13 35 17.9249 35 24H37ZM24 23C26.7614 23 29 20.7614 29 18H27C27 19.6569 25.6569 21 24 21V23ZM19 18C19 20.7614 21.2386 23 24 23V21C22.3431 21 21 19.6569 21 18H19ZM24 13C21.2386 13 19 15.2386 19 18H21C21 16.3431 22.3431 15 24 15V13ZM29 18C29 15.2386 26.7614 13 24 13V15C25.6569 15 27 16.3431 27 18H29ZM27 30C27 31.6569 25.6569 33 24 33V35C26.7614 35 29 32.7614 29 30H27ZM24 27C25.6569 27 27 28.3431 27 30H29C29 27.2386 26.7614 25 24 25V27ZM21 30C21 28.3431 22.3431 27 24 27V25C21.2386 25 19 27.2386 19 30H21ZM24 33C22.3431 33 21 31.6569 21 30H19C19 32.7614 21.2386 35 24 35V33ZM18 29C20.7614 29 23 26.7614 23 24H21C21 25.6569 19.6569 27 18 27V29ZM13 24C13 26.7614 15.2386 29 18 29V27C16.3431 27 15 25.6569 15 24H13ZM18 19C15.2386 19 13 21.2386 13 24H15C15 22.3431 16.3431 21 18 21V19ZM23 24C23 21.2386 20.7614 19 18 19V21C19.6569 21 21 22.3431 21 24H23ZM33 24C33 25.6569 31.6569 27 30 27V29C32.7614 29 35 26.7614 35 24H33ZM30 21C31.6569 21 33 22.3431 33 24H35C35 21.2386 32.7614 19 30 19V21ZM27 24C27 22.3431 28.3431 21 30 21V19C27.2386 19 25 21.2386 25 24H27ZM30 27C28.3431 27 27 25.6569 27 24H25C25 26.7614 27.2386 29 30 29V27Z" fill="white"/>
<defs>
<linearGradient id="paint0_linear_5_24" x1="0" y1="0" x2="48" y2="48" gradientUnits="userSpaceOnUse">
<stop stop-color="#8754F3"/>
<stop offset="1" stop-color="#FF8989"/>
</linearGradient>
</defs>
</svg>
